<svg
            xmlns="http://www.w3.org/2000/svg"
            width="1366"
            height="274"
            viewBox="0 0 1366 274"
            fill="none"
          >
            <path
              opacity="0.3"
              d="M-244.1 35.1001L-97.7 35.4001L-29.5 35.3001L173.6 34.7001C189.6 34.7001 258.3 34.9001 264.7 34.7001C271.1 34.5001 405.5 34.7001 422.9 34.7001C440.3 34.7001 739.3 34.2001 750.2 34.5001C761.1 34.7001 852.2 34.5001 865 34.5001C877.7 34.5001 1058.5 34.1001 1083.2 34.3001C1108 34.5001 1282.6 34.3001 1282.6 34.3001H1606.1L1677 33.9001C1796.3 33.5001 1861.7 33.3001 1873.2 33.4001C1890.4 33.6001 2020.3 33.4001 2031.5 33.4001L2092 33.6001V36.0001L1908.1 36.3001H1606.1L1480.9 36.0001L1201.2 36.3001C1194.3 36.3001 930 36.8001 923.8 36.6001C917.7 36.3001 714 36.6001 714 36.6001L437.7 36.7001L202.1 36.9001H-244L-244.1 35.1001ZM-243.1 1.70009L-96.8 1.90008L-28.6 1.80008L174.4 1.30008H423.7C441.1 1.30008 740 0.900085 750.8 1.10008C761.6 1.30008 852.8 1.10008 865.5 1.10008C878.2 1.10008 1058.9 0.800084 1083.6 0.900084C1108.4 1.10008 1282.9 0.900084 1282.9 0.900084H1606.3L1677.2 0.600085C1796.5 0.300085 1861.8 0.100085 1873.3 0.200085H2031.5L2092 0.400084V2.20009L1908.2 2.50008H1606.3L1481.2 2.20009L1201.6 2.50008C1194.7 2.50008 930.5 2.90009 924.4 2.70009C918.3 2.50009 714.7 2.70009 714.7 2.70009L438.3 2.90008L202.8 3.10008H-243.2L-243.1 1.70009ZM-242.8 265.8L-96.5 266.5L-28.3 266.6H174.8C190.7 266.6 259.4 267 265.9 266.9C272.4 266.8 406.6 267.3 424 267.4C441.4 267.5 740.2 267.8 751.1 268.1C761.9 268.4 853.1 268.4 865.8 268.4C1004.93 268.407 1144.07 268.74 1283.2 269.4L1606.5 270.3L1677.4 270.1C1796.7 270 1862.1 270.1 1873.5 270.2C1890.6 270.4 2020.5 270.6 2031.7 270.7L2092.3 271.1V273.3L1908 273.2L1606.2 272.3L1481.2 271.6L1201.7 271.1C1194.8 271.1 930.6 270.8 924.5 270.5C918.4 270.2 714.8 269.9 714.8 269.9L438.4 269.3L203 268.8L-90.7 267.9L-242.8 267.5V265.8ZM-243.9 77.0001C-243.4 81.3001 287.5 77.0001 375.6 77.0001L830.2 77.4001C878.3 77.4001 998.1 77.0001 998.1 77.0001C998.1 77.0001 1374.5 76.4001 1416.3 76.7001C1458.2 77.0001 1780.8 77.0001 1799 76.7001C1896.67 76.3092 1994.33 76.4092 2092 77.0001V74.4001C2021.9 74.2001 1962.3 74.3001 1922.8 74.6001C1863.6 74.9001 1531.6 75.2001 1506.2 75.2001L1189.4 74.9001L1101.6 75.2001L904.1 74.9001H767.2L476.5 75.1001C438 75.1001 349.7 75.1001 288.9 74.8001C228.1 74.5001 101 74.5001 60.1 74.5001H-243.9V77.0001ZM2091.9 156.8L1959.1 156.2H1897.2L1712.8 156.3C1698.3 156.3 1635.9 155.9 1630.1 156.1C1624.3 156.3 1502.3 155.7 1486.5 155.7C1470.7 155.7 1199.3 155.4 1189.5 155.1C1179.7 154.8 1096.9 154.8 1085.4 154.8C1073.9 154.8 909.8 154.7 887.3 154.5C864.9 154.2 706.3 154 706.3 154L412.7 153.2L348.3 153.4C241.033 153.66 133.766 153.527 26.5 153C19.7 153 -214 152.9 -243.8 152.6L-243.5 150.3L138.9 150.4L413 151.2L526.6 151.8L780.5 152.2C786.8 152.2 1026.7 152.4 1032.3 152.7C1037.8 153 1222.7 153.2 1222.7 153.2C1377.63 153.644 1532.57 153.944 1687.5 154.1L1954.3 154.8L2092.5 155.2C2091.9 156.3 2091.9 156.8 2091.9 156.8Z"
              fill="black"
            />
          </svg>