<svg xmlns="http://www.w3.org/2000/svg" width="1366" height="298" viewBox="0 0 1366 298" fill="none">
<path opacity="0.3" d="M1336.5 1.7L1366.3 36.3C1372.2 43 1395.2 70.2 1396.8 72L1411.7 89.3L1438.3 119.8L1461.7 146.7C1463.9 149.2 1500.4 191.7 1504.8 196.6C1530.67 225.995 1556.28 255.63 1581.6 285.5L1620.7 330.9L1656.7 372L1706.5 429.5L1738.6 466.8L1762.1 493.9C1762.5 494.4 1764.2 494.7 1767.1 494.8L1721.9 443C1714.58 434.773 1707.35 426.472 1700.2 418.1L1668.1 380.8L1638.8 347.5C1636.2 344.6 1593.7 295.5 1591.8 293.7C1589.9 291.9 1555 251.1 1552.5 248.3C1550.1 245.5 1520 211.4 1518.6 209.6C1488.5 174.435 1458.13 139.501 1427.5 104.8L1379.8 49.4L1353.6 19L1337.7 0.8L1336.5 1.7ZM1529.9 2.1L1563.4 28.9C1570 34.1 1595.9 55.3 1597.7 56.7L1614.4 70.1C1633.11 84.8647 1651.84 99.5981 1670.6 114.3C1673.1 116.2 1714.1 149.3 1719.1 152.9C1724 156.6 1763.4 187.8 1764.6 188.8L1805.4 221.8L1849.3 257L1889.7 288.7L1945.7 333.3L1981.8 362.2L2092 449.6V444.8L1962.8 342.4C1950.8 333.1 1942.7 326.7 1938.4 323.2C1926.41 313.482 1914.37 303.815 1902.3 294.2L1869.4 268.5C1866.5 266.2 1818.7 228.3 1816.7 227C1814.7 225.7 1775.3 194 1772.6 191.9C1769.9 189.8 1736.1 163.5 1734.5 162.1C1700.72 134.663 1666.62 107.628 1632.2 81L1578.5 38L1549 14.5L1531.2 0.5L1529.9 2.1ZM407.9 3.1L374 29.4L339.3 56.6L322.4 69.8L292.2 93L265.6 113.4L216.7 151.4C211.7 155.1 172 185.7 170.7 186.7C169.5 187.7 132.2 217 129.4 219L85 253.6L44.3 284.8L-12.2 328.6L-48.7 357L-75.3 377.6C-75.8 378 -220.7 496.3 -223.6 495.8L-29.1 338L-4.5 319.1C-0.199997 315.6 12 306.2 32 290.7L65.1 265.4C68 263.2 116.3 225.8 118.3 224.5C120.3 223.2 160.1 192.1 162.9 190L201.3 160.7C235.585 133.909 270.019 107.308 304.6 80.9L358.8 38.7C374.679 26.3298 390.612 14.0297 406.6 1.8L407.9 3.1ZM1131.7 1.7L1143.6 32.6L1149.5 47L1167.2 90C1168.5 93.4 1174 107.9 1174.8 109.3C1179.33 120.414 1183.73 131.581 1188 142.8C1189.5 146.5 1215 209.8 1215.6 212C1216.2 214.3 1224.1 233.6 1225.2 236.3C1226.3 239 1241.9 277.3 1243.7 282.5C1258.22 319.373 1272.75 356.239 1287.3 393.1L1293.7 408.1C1304.2 433.4 1309.9 447.2 1310.7 449.6C1311.9 453.2 1323 480.7 1323.9 483.1L1328.7 495.9L1325.8 495.6L1310 456.7L1284.8 392.8L1274.8 366.4L1251 307.2C1250.4 305.7 1227.7 249.8 1227.5 248.5C1227.3 247.2 1210 204.1 1210 204.1L1186.6 145.6L1166.7 95.8L1142.2 33.7L1129.5 1.5L1131.7 1.7ZM936.7 495.8L936.6 369.1L937 271.6C937 261.2 936.6 235.6 936.6 235.6C936.6 235.6 936 154.9 936.3 145.9C936.6 136.9 936.6 67.8 936.3 63.9C935.909 42.9672 936.009 22.0281 936.6 1.1L933.9 2.1C933.7 17.1 933.7 28.9 933.9 37.3C934.3 50 934.5 121.2 934.5 126.6L934.2 194.5L934.5 213.3L934.2 255.6V284.9L934.5 347.2C934.5 355.4 934.5 374.4 934.2 387.4C933.9 400.4 933.9 427.7 933.9 436.4V473.8L934 495.5C935 495.8 936.1 495.8 936.7 495.8ZM513.9 495.8C515 495.8 569.9 382.2 578.9 363.6L625.7 268.2C630.6 258.1 642.5 232.6 642.5 232.6C642.5 232.6 680.4 152.9 685 144.3C689.5 135.7 722.5 67.8 724.1 63.7C733.653 42.9849 743.723 22.5119 754.3 2.3L751.7 1.4C744.3 16 738.7 27.5 734.9 36C729.1 48.7 695.4 118.8 692.8 124.2L660.2 190.6L651.5 209.3L631.1 250.6L617.1 279.4L587.7 340.9C581.364 354.031 574.897 367.098 568.3 380.1C560.319 396.044 552.452 412.044 544.7 428.1L526.9 464.8L511.2 495.8H513.9Z" fill="black"/>
</svg>